<svg data-v-d3f97b9e="" xmlns="http://www.w3.org/2000/svg" viewBox="0 0 652.1052631578948 163"><!----><!----><!----><g data-v-d3f97b9e="" id="e11592fc-13e5-484b-85af-be8dcbda48b5" fill="#ffffff" transform="matrix(6.315789473684211,0,0,6.315789473684211,-6.000001217189606,95.73684070612255)"><path d="M2.41 9.18L6.15 9.18L6.15 10.50L0.95 10.50L0.95 1.33L2.41 1.33L2.41 9.18ZM7.69 7.18L7.69 7.18Q7.69 5.49 8.44 4.61L8.44 4.61L8.44 4.61Q9.20 3.74 10.54 3.74L10.54 3.74L10.54 3.74Q11.89 3.74 12.62 4.53L12.62 4.53L12.62 4.53Q13.36 5.32 13.38 6.85L13.38 6.85L13.33 7.88L9.24 7.88L9.24 7.88Q9.37 9.39 10.75 9.39L10.75 9.39L10.75 9.39Q11.72 9.39 12.80 9.04L12.80 9.04L13.09 10.26L13.09 10.26Q12.64 10.42 11.93 10.54L11.93 10.54L11.93 10.54Q11.21 10.65 10.75 10.65L10.75 10.65L10.75 10.65Q7.69 10.65 7.69 7.18L7.69 7.18ZM10.60 5.04L10.60 5.04L10.60 5.04Q9.94 5.04 9.61 5.42L9.61 5.42L9.61 5.42Q9.28 5.81 9.24 6.71L9.24 6.71L11.83 6.71L11.83 6.71Q11.83 5.04 10.60 5.04ZM17.02 9.30L17.02 9.30L17.02 9.30Q17.42 9.30 17.89 9.11L17.89 9.11L17.89 9.11Q18.37 8.93 18.65 8.71L18.65 8.71L18.65 7.73L18.65 7.73Q17.81 7.66 17.28 7.66L17.28 7.66L17.28 7.66Q16.11 7.66 16.11 8.53L16.11 8.53L16.11 8.53Q16.11 9.30 17.02 9.30ZM16.80 10.65L16.80 10.65L16.80 10.65Q14.56 10.65 14.56 8.53L14.56 8.53L14.56 8.53Q14.56 7.39 15.28 6.94L15.28 6.94L15.28 6.94Q16.00 6.48 17.28 6.48L17.28 6.48L17.28 6.48Q17.88 6.48 18.65 6.55L18.65 6.55L18.65 6.55Q18.65 5.71 18.41 5.40L18.41 5.40L18.41 5.40Q18.17 5.10 17.58 5.10L17.58 5.10L17.58 5.10Q17.00 5.10 16.21 5.24L16.21 5.24L16.21 5.24Q15.43 5.38 15.01 5.52L15.01 5.52L14.74 4.19L14.74 4.19Q16.21 3.74 17.61 3.74L17.61 3.74L17.61 3.74Q19.01 3.74 19.55 4.35L19.55 4.35L19.55 4.35Q20.09 4.97 20.09 6.44L20.09 6.44L20.09 9.28L20.24 10.51L18.80 10.65L18.66 10.01L18.66 10.01Q17.49 10.65 16.80 10.65ZM23.21 5.14L22.13 5.14L22.13 3.85L24.65 3.85L24.68 4.52L24.68 4.52Q25.13 4.27 25.85 4.04L25.85 4.04L25.85 4.04Q26.57 3.81 27.19 3.74L27.19 3.74L27.19 5.14L27.19 5.14Q26.64 5.19 25.89 5.43L25.89 5.43L25.89 5.43Q25.13 5.67 24.68 5.92L24.68 5.92L24.68 9.24L26.73 9.24L26.73 10.50L22.13 10.50L22.13 9.21L23.21 9.21L23.21 5.14ZM28.78 3.85L30.18 3.85L30.21 4.26L30.21 4.26Q31.35 3.74 31.99 3.74L31.99 3.74L31.99 3.74Q33.12 3.74 33.66 4.40L33.66 4.40L33.66 4.40Q34.20 5.07 34.20 6.48L34.20 6.48L34.20 10.50L32.76 10.50L32.76 6.52L32.76 6.52Q32.76 5.85 32.52 5.47L32.52 5.47L32.52 5.47Q32.28 5.10 31.78 5.10L31.78 5.10L31.78 5.10Q31.28 5.10 30.23 5.59L30.23 5.59L30.23 10.50L28.78 10.50L28.78 3.85ZM44.87 10.50L42.80 10.50L42 1.33L43.40 1.33L44.02 9.21L44.10 9.21L44.97 5.14L46.21 5.14L47.04 9.21L47.14 9.21L47.63 1.33L48.99 1.33L48.36 10.50L46.23 10.50L45.58 6.89L45.54 6.89L44.87 10.50ZM52.00 5.17L50.44 5.17L50.44 3.88L53.44 3.88L53.44 9.21L54.99 9.21L54.99 10.50L50.33 10.50L50.33 9.21L52.00 9.21L52.00 5.17ZM52.04 2.65L52.04 2.65L52.04 2.65Q51.77 2.38 51.77 2.02L51.77 2.02L51.77 2.02Q51.77 1.65 52.02 1.40L52.02 1.40L52.02 1.40Q52.28 1.15 52.64 1.15L52.64 1.15L52.64 1.15Q53.00 1.15 53.26 1.39L53.26 1.39L53.26 1.39Q53.51 1.64 53.51 2.02L53.51 2.02L53.51 2.02Q53.51 2.39 53.26 2.66L53.26 2.66L53.26 2.66Q53.00 2.93 52.65 2.93L52.65 2.93L52.65 2.93Q52.30 2.93 52.04 2.65ZM57.96 7.95L57.96 5.14L56.90 5.14L56.90 3.85L57.96 3.85L57.96 2.25L59.40 2.11L59.40 3.85L61.89 3.85L61.89 5.14L59.40 5.14L59.40 7.95L59.40 7.95Q59.40 8.72 59.56 9.03L59.56 9.03L59.56 9.03Q59.72 9.34 60.28 9.34L60.28 9.34L60.28 9.34Q60.84 9.34 61.77 9.11L61.77 9.11L62.01 10.37L62.01 10.37Q60.94 10.65 60.19 10.65L60.19 10.65L60.19 10.65Q58.84 10.65 58.40 10.05L58.40 10.05L58.40 10.05Q57.96 9.45 57.96 7.95L57.96 7.95ZM65.23 5.60L65.23 5.60L65.23 10.50L63.78 10.50L63.78 1.16L65.23 1.16L65.23 4.24L65.23 4.24Q66.36 3.74 67.00 3.74L67.00 3.74L67.00 3.74Q68.21 3.74 68.70 4.44L68.70 4.44L68.70 4.44Q69.20 5.14 69.20 6.48L69.20 6.48L69.20 10.50L67.76 10.50L67.76 6.45L67.76 6.45Q67.76 5.87 67.53 5.48L67.53 5.48L67.53 5.48Q67.30 5.10 66.92 5.10L66.92 5.10L66.92 5.10Q66.23 5.10 65.23 5.60ZM79.41 9.18L83.15 9.18L83.15 10.50L77.95 10.50L77.95 1.33L79.41 1.33L79.41 9.18ZM84.69 7.18L84.69 7.18Q84.69 5.49 85.44 4.61L85.44 4.61L85.44 4.61Q86.20 3.74 87.54 3.74L87.54 3.74L87.54 3.74Q88.89 3.74 89.62 4.53L89.62 4.53L89.62 4.53Q90.36 5.32 90.38 6.85L90.38 6.85L90.33 7.88L86.24 7.88L86.24 7.88Q86.37 9.39 87.75 9.39L87.75 9.39L87.75 9.39Q88.72 9.39 89.80 9.04L89.80 9.04L90.09 10.26L90.09 10.26Q89.64 10.42 88.93 10.54L88.93 10.54L88.93 10.54Q88.21 10.65 87.75 10.65L87.75 10.65L87.75 10.65Q84.69 10.65 84.69 7.18L84.69 7.18ZM87.60 5.04L87.60 5.04L87.60 5.04Q86.94 5.04 86.61 5.42L86.61 5.42L86.61 5.42Q86.28 5.81 86.24 6.71L86.24 6.71L88.83 6.71L88.83 6.71Q88.83 5.04 87.60 5.04ZM94.02 9.30L94.02 9.30L94.02 9.30Q94.42 9.30 94.89 9.11L94.89 9.11L94.89 9.11Q95.37 8.93 95.65 8.71L95.65 8.71L95.65 7.73L95.65 7.73Q94.81 7.66 94.28 7.66L94.28 7.66L94.28 7.66Q93.11 7.66 93.11 8.53L93.11 8.53L93.11 8.53Q93.11 9.30 94.02 9.30ZM93.80 10.65L93.80 10.65L93.80 10.65Q91.56 10.65 91.56 8.53L91.56 8.53L91.56 8.53Q91.56 7.39 92.28 6.94L92.28 6.94L92.28 6.94Q93.00 6.48 94.28 6.48L94.28 6.48L94.28 6.48Q94.88 6.48 95.65 6.55L95.65 6.55L95.65 6.55Q95.65 5.71 95.41 5.40L95.41 5.40L95.41 5.40Q95.17 5.10 94.58 5.10L94.58 5.10L94.58 5.10Q94.00 5.10 93.21 5.24L93.21 5.24L93.21 5.24Q92.43 5.38 92.01 5.52L92.01 5.52L91.74 4.19L91.74 4.19Q93.21 3.74 94.61 3.74L94.61 3.74L94.61 3.74Q96.01 3.74 96.55 4.35L96.55 4.35L96.55 4.35Q97.09 4.97 97.09 6.44L97.09 6.44L97.09 9.28L97.24 10.51L95.80 10.65L95.66 10.01L95.66 10.01Q94.49 10.65 93.80 10.65ZM100.23 5.60L100.23 5.60L100.23 10.50L98.78 10.50L98.78 1.16L100.23 1.16L100.23 4.24L100.23 4.24Q101.36 3.74 102.00 3.74L102.00 3.74L102.00 3.74Q103.21 3.74 103.70 4.44L103.70 4.44L103.70 4.44Q104.20 5.14 104.20 6.48L104.20 6.48L104.20 10.50L102.76 10.50L102.76 6.45L102.76 6.45Q102.76 5.87 102.53 5.48L102.53 5.48L102.53 5.48Q102.30 5.10 101.92 5.10L101.92 5.10L101.92 5.10Q101.23 5.10 100.23 5.60Z"></path></g><!----><g data-v-d3f97b9e="" id="e155fc91-da47-4178-8e68-8bab32f469b4" transform="matrix(5.625,0,0,5.625,301.1875,-126.0625)" stroke="none" fill="#398E7B"><path d="M-1.5 29.5V33c0 1.4 2.7 2.5 6 2.5s6-1.1 6-2.5v-3.5l-6 2-6-2z"></path><path d="M4.7 26L-2 28.3l6.5 2.2 12-4-12-4-12 4 4 1.3L4.3 25c.3-.1.5 0 .6.3.2.3 0 .6-.2.7zM-2.5 34c0-.7-.4-1.2-1-1.4V29c0-.3-.2-.5-.5-.5s-.5.2-.5.5v3.6c-.6.2-1 .8-1 1.4 0 .6.3 1.1.8 1.3l-.8 3.2h3l-.8-3.2c.5-.2.8-.7.8-1.3z"></path></g><!----></svg>