<svg data-v-29081953="" xmlns="http://www.w3.org/2000/svg" viewBox="0 0 300 300"><!----><defs data-v-29081953=""><!----></defs><rect data-v-29081953="" fill="#DBC98D" x="0" y="0" width="300px" height="300px" class="logo-background-square"></rect><!----><defs data-v-29081953=""><!----></defs><g data-v-29081953="" id="e9091a2c-b04f-4a1a-bafb-1e79efe4ddad" fill="#398E7B" stroke="none" transform="matrix(9.166666666666666,0,0,9.166666666666666,108.75,-129.58333333333331)"><path d="M-1.5 29.5V33c0 1.4 2.7 2.5 6 2.5s6-1.1 6-2.5v-3.5l-6 2-6-2z"></path><path d="M4.7 26L-2 28.3l6.5 2.2 12-4-12-4-12 4 4 1.3L4.3 25c.3-.1.5 0 .6.3.2.3 0 .6-.2.7zM-2.5 34c0-.7-.4-1.2-1-1.4V29c0-.3-.2-.5-.5-.5s-.5.2-.5.5v3.6c-.6.2-1 .8-1 1.4 0 .6.3 1.1.8 1.3l-.8 3.2h3l-.8-3.2c.5-.2.8-.7.8-1.3z"></path></g><!----></svg>