<svg data-v-d3f97b9e="" xmlns="http://www.w3.org/2000/svg" viewBox="0 0 90 60"><!----><!----><!----><!----><g data-v-d3f97b9e="" id="7e20cc11-0e6d-49da-88f1-cdb481301429" transform="matrix(3.75,0,0,3.75,28.125,-84.375)" stroke="none" fill="white"><path d="M-1.5 29.5V33c0 1.4 2.7 2.5 6 2.5s6-1.1 6-2.5v-3.5l-6 2-6-2z"></path><path d="M4.7 26L-2 28.3l6.5 2.2 12-4-12-4-12 4 4 1.3L4.3 25c.3-.1.5 0 .6.3.2.3 0 .6-.2.7zM-2.5 34c0-.7-.4-1.2-1-1.4V29c0-.3-.2-.5-.5-.5s-.5.2-.5.5v3.6c-.6.2-1 .8-1 1.4 0 .6.3 1.1.8 1.3l-.8 3.2h3l-.8-3.2c.5-.2.8-.7.8-1.3z"></path></g><!----></svg>